<mxfile host="www.draw.io" modified="2019-10-15T16:15:08.542Z" agent="Mozilla/5.0 (Windows NT 10.0; Win64; x64) AppleWebKit/537.36 (KHTML, like Gecko) Chrome/77.0.3865.120 Safari/537.36" etag="ljOP4gIIuH1HycwYWOuD" version="12.1.1" type="github" pages="1">
  <diagram id="6a731a19-8d31-9384-78a2-239565b7b9f0" name="Page-1">
    <mxGraphModel dx="1423" dy="797" grid="1" gridSize="10" guides="1" tooltips="1" connect="1" arrows="1" fold="1" page="1" pageScale="1" pageWidth="3300" pageHeight="2339" background="#ffffff" math="0" shadow="0">
      <root>
        <mxCell id="0"/>
        <mxCell id="1" parent="0"/>
        <mxCell id="3d83Q20rRKI5kotcakSP-58" value="" style="edgeStyle=orthogonalEdgeStyle;rounded=0;orthogonalLoop=1;jettySize=auto;html=1;" edge="1" parent="1" source="3d83Q20rRKI5kotcakSP-55" target="3d83Q20rRKI5kotcakSP-57">
          <mxGeometry relative="1" as="geometry"/>
        </mxCell>
        <mxCell id="3d83Q20rRKI5kotcakSP-55" value="Start" style="rounded=1;whiteSpace=wrap;html=1;" vertex="1" parent="1">
          <mxGeometry x="132" y="80" width="120" height="60" as="geometry"/>
        </mxCell>
        <mxCell id="3d83Q20rRKI5kotcakSP-60" value="" style="edgeStyle=orthogonalEdgeStyle;rounded=0;orthogonalLoop=1;jettySize=auto;html=1;" edge="1" parent="1" source="3d83Q20rRKI5kotcakSP-57" target="3d83Q20rRKI5kotcakSP-59">
          <mxGeometry relative="1" as="geometry"/>
        </mxCell>
        <mxCell id="3d83Q20rRKI5kotcakSP-57" value="&lt;p class=&quot;MsoNormal&quot; style=&quot;font-size: 11px ; line-height: 100%&quot;&gt;Total Gaji, Level Jabatan,&amp;nbsp;&lt;br&gt;&lt;span&gt;Jumlah Jam Lembur, Masa Kerja,&lt;br&gt;GajiPokok, Bonus,&lt;/span&gt;&lt;/p&gt;&lt;p class=&quot;MsoNormal&quot;&gt;&lt;/p&gt;" style="shape=hexagon;perimeter=hexagonPerimeter2;whiteSpace=wrap;html=1;" vertex="1" parent="1">
          <mxGeometry x="92" y="170" width="200" height="90" as="geometry"/>
        </mxCell>
        <mxCell id="3d83Q20rRKI5kotcakSP-62" value="" style="edgeStyle=orthogonalEdgeStyle;rounded=0;orthogonalLoop=1;jettySize=auto;html=1;" edge="1" parent="1" source="3d83Q20rRKI5kotcakSP-59" target="3d83Q20rRKI5kotcakSP-61">
          <mxGeometry relative="1" as="geometry"/>
        </mxCell>
        <mxCell id="3d83Q20rRKI5kotcakSP-59" value="Input Masa Kerja Karyawan&lt;br&gt;Level Jabatan,&lt;br&gt;Jumlah Jam Lembur&amp;nbsp;" style="shape=parallelogram;perimeter=parallelogramPerimeter;whiteSpace=wrap;html=1;" vertex="1" parent="1">
          <mxGeometry x="80" y="290" width="225" height="80" as="geometry"/>
        </mxCell>
        <mxCell id="3d83Q20rRKI5kotcakSP-64" value="" style="edgeStyle=orthogonalEdgeStyle;rounded=0;orthogonalLoop=1;jettySize=auto;html=1;" edge="1" parent="1" source="3d83Q20rRKI5kotcakSP-61" target="3d83Q20rRKI5kotcakSP-63">
          <mxGeometry relative="1" as="geometry"/>
        </mxCell>
        <mxCell id="3d83Q20rRKI5kotcakSP-66" value="" style="edgeStyle=orthogonalEdgeStyle;rounded=0;orthogonalLoop=1;jettySize=auto;html=1;" edge="1" parent="1" source="3d83Q20rRKI5kotcakSP-61" target="3d83Q20rRKI5kotcakSP-65">
          <mxGeometry relative="1" as="geometry"/>
        </mxCell>
        <mxCell id="3d83Q20rRKI5kotcakSP-61" value="Masa Kerja 1 - 5 Tahun =" style="rhombus;whiteSpace=wrap;html=1;" vertex="1" parent="1">
          <mxGeometry x="117.5" y="410" width="150" height="140" as="geometry"/>
        </mxCell>
        <mxCell id="3d83Q20rRKI5kotcakSP-69" value="" style="edgeStyle=orthogonalEdgeStyle;rounded=0;orthogonalLoop=1;jettySize=auto;html=1;" edge="1" parent="1" source="3d83Q20rRKI5kotcakSP-65" target="3d83Q20rRKI5kotcakSP-67">
          <mxGeometry relative="1" as="geometry"/>
        </mxCell>
        <mxCell id="3d83Q20rRKI5kotcakSP-71" value="" style="edgeStyle=orthogonalEdgeStyle;rounded=0;orthogonalLoop=1;jettySize=auto;html=1;" edge="1" parent="1" source="3d83Q20rRKI5kotcakSP-65" target="3d83Q20rRKI5kotcakSP-70">
          <mxGeometry relative="1" as="geometry"/>
        </mxCell>
        <mxCell id="3d83Q20rRKI5kotcakSP-65" value="Masa Kerja 6 - 10 Tahun" style="rhombus;whiteSpace=wrap;html=1;" vertex="1" parent="1">
          <mxGeometry x="117.5" y="590" width="150" height="140" as="geometry"/>
        </mxCell>
        <mxCell id="3d83Q20rRKI5kotcakSP-73" value="" style="edgeStyle=orthogonalEdgeStyle;rounded=0;orthogonalLoop=1;jettySize=auto;html=1;" edge="1" parent="1" source="3d83Q20rRKI5kotcakSP-70" target="3d83Q20rRKI5kotcakSP-72">
          <mxGeometry relative="1" as="geometry"/>
        </mxCell>
        <mxCell id="3d83Q20rRKI5kotcakSP-70" value="Masa Kerja &amp;gt; 10 Tahun" style="rhombus;whiteSpace=wrap;html=1;" vertex="1" parent="1">
          <mxGeometry x="117" y="770" width="150" height="140" as="geometry"/>
        </mxCell>
        <mxCell id="3d83Q20rRKI5kotcakSP-63" value="Tunjangan = 500.000" style="rounded=0;whiteSpace=wrap;html=1;" vertex="1" parent="1">
          <mxGeometry x="305" y="450" width="147" height="60" as="geometry"/>
        </mxCell>
        <mxCell id="3d83Q20rRKI5kotcakSP-67" value="Tunjangan =&amp;nbsp; 750.000" style="rounded=0;whiteSpace=wrap;html=1;" vertex="1" parent="1">
          <mxGeometry x="305" y="630" width="147" height="60" as="geometry"/>
        </mxCell>
        <mxCell id="3d83Q20rRKI5kotcakSP-72" value="Tunjangan =&amp;nbsp; 1.000.000" style="rounded=0;whiteSpace=wrap;html=1;" vertex="1" parent="1">
          <mxGeometry x="305" y="810" width="147" height="60" as="geometry"/>
        </mxCell>
        <mxCell id="3d83Q20rRKI5kotcakSP-74" value="" style="edgeStyle=orthogonalEdgeStyle;rounded=0;orthogonalLoop=1;jettySize=auto;html=1;" edge="1" parent="1" source="3d83Q20rRKI5kotcakSP-76" target="3d83Q20rRKI5kotcakSP-82">
          <mxGeometry relative="1" as="geometry"/>
        </mxCell>
        <mxCell id="3d83Q20rRKI5kotcakSP-75" value="" style="edgeStyle=orthogonalEdgeStyle;rounded=0;orthogonalLoop=1;jettySize=auto;html=1;" edge="1" parent="1" source="3d83Q20rRKI5kotcakSP-76" target="3d83Q20rRKI5kotcakSP-79">
          <mxGeometry relative="1" as="geometry"/>
        </mxCell>
        <mxCell id="3d83Q20rRKI5kotcakSP-76" value="Jabatan Level A" style="rhombus;whiteSpace=wrap;html=1;" vertex="1" parent="1">
          <mxGeometry x="520.5" y="410" width="150" height="140" as="geometry"/>
        </mxCell>
        <mxCell id="3d83Q20rRKI5kotcakSP-77" value="" style="edgeStyle=orthogonalEdgeStyle;rounded=0;orthogonalLoop=1;jettySize=auto;html=1;" edge="1" parent="1" source="3d83Q20rRKI5kotcakSP-79" target="3d83Q20rRKI5kotcakSP-83">
          <mxGeometry relative="1" as="geometry"/>
        </mxCell>
        <mxCell id="3d83Q20rRKI5kotcakSP-78" value="" style="edgeStyle=orthogonalEdgeStyle;rounded=0;orthogonalLoop=1;jettySize=auto;html=1;" edge="1" parent="1" source="3d83Q20rRKI5kotcakSP-79" target="3d83Q20rRKI5kotcakSP-81">
          <mxGeometry relative="1" as="geometry"/>
        </mxCell>
        <mxCell id="3d83Q20rRKI5kotcakSP-79" value="Jabatan Level B" style="rhombus;whiteSpace=wrap;html=1;" vertex="1" parent="1">
          <mxGeometry x="520.5" y="590" width="150" height="140" as="geometry"/>
        </mxCell>
        <mxCell id="3d83Q20rRKI5kotcakSP-80" value="" style="edgeStyle=orthogonalEdgeStyle;rounded=0;orthogonalLoop=1;jettySize=auto;html=1;" edge="1" parent="1" source="3d83Q20rRKI5kotcakSP-81" target="3d83Q20rRKI5kotcakSP-84">
          <mxGeometry relative="1" as="geometry"/>
        </mxCell>
        <mxCell id="3d83Q20rRKI5kotcakSP-81" value="Jabatan Level C" style="rhombus;whiteSpace=wrap;html=1;" vertex="1" parent="1">
          <mxGeometry x="520" y="770" width="150" height="140" as="geometry"/>
        </mxCell>
        <mxCell id="3d83Q20rRKI5kotcakSP-82" value="Gapok = 5.000.000" style="rounded=0;whiteSpace=wrap;html=1;" vertex="1" parent="1">
          <mxGeometry x="708" y="450" width="147" height="60" as="geometry"/>
        </mxCell>
        <mxCell id="3d83Q20rRKI5kotcakSP-83" value="Gapok = 4.000.000" style="rounded=0;whiteSpace=wrap;html=1;" vertex="1" parent="1">
          <mxGeometry x="708" y="630" width="147" height="60" as="geometry"/>
        </mxCell>
        <mxCell id="3d83Q20rRKI5kotcakSP-84" value="Gapok = 3.000.000" style="rounded=0;whiteSpace=wrap;html=1;" vertex="1" parent="1">
          <mxGeometry x="708" y="810" width="147" height="60" as="geometry"/>
        </mxCell>
        <mxCell id="3d83Q20rRKI5kotcakSP-85" value="" style="edgeStyle=elbowEdgeStyle;elbow=horizontal;endArrow=classic;html=1;exitX=1;exitY=0.5;exitDx=0;exitDy=0;entryX=0.5;entryY=0;entryDx=0;entryDy=0;" edge="1" parent="1" source="3d83Q20rRKI5kotcakSP-59" target="3d83Q20rRKI5kotcakSP-76">
          <mxGeometry width="50" height="50" relative="1" as="geometry">
            <mxPoint x="310" y="390" as="sourcePoint"/>
            <mxPoint x="360" y="340" as="targetPoint"/>
            <Array as="points">
              <mxPoint x="596" y="330"/>
            </Array>
          </mxGeometry>
        </mxCell>
        <mxCell id="3d83Q20rRKI5kotcakSP-104" value="" style="edgeStyle=elbowEdgeStyle;elbow=horizontal;endArrow=classic;html=1;exitX=0.5;exitY=1;exitDx=0;exitDy=0;entryX=0;entryY=0.5;entryDx=0;entryDy=0;" edge="1" parent="1" source="3d83Q20rRKI5kotcakSP-70" target="3d83Q20rRKI5kotcakSP-111">
          <mxGeometry width="50" height="50" relative="1" as="geometry">
            <mxPoint x="210" y="980" as="sourcePoint"/>
            <mxPoint x="930" y="960" as="targetPoint"/>
            <Array as="points">
              <mxPoint x="192" y="930"/>
            </Array>
          </mxGeometry>
        </mxCell>
        <mxCell id="3d83Q20rRKI5kotcakSP-105" value="" style="edgeStyle=elbowEdgeStyle;elbow=horizontal;endArrow=classic;html=1;exitX=1;exitY=0.5;exitDx=0;exitDy=0;" edge="1" parent="1" source="3d83Q20rRKI5kotcakSP-63">
          <mxGeometry width="50" height="50" relative="1" as="geometry">
            <mxPoint x="290" y="950" as="sourcePoint"/>
            <mxPoint x="480" y="960" as="targetPoint"/>
            <Array as="points">
              <mxPoint x="480" y="730"/>
            </Array>
          </mxGeometry>
        </mxCell>
        <mxCell id="3d83Q20rRKI5kotcakSP-106" value="" style="edgeStyle=elbowEdgeStyle;elbow=horizontal;endArrow=classic;html=1;exitX=1;exitY=0.5;exitDx=0;exitDy=0;" edge="1" parent="1" source="3d83Q20rRKI5kotcakSP-67">
          <mxGeometry width="50" height="50" relative="1" as="geometry">
            <mxPoint x="440" y="1050" as="sourcePoint"/>
            <mxPoint x="480" y="960" as="targetPoint"/>
            <Array as="points">
              <mxPoint x="480" y="810"/>
            </Array>
          </mxGeometry>
        </mxCell>
        <mxCell id="3d83Q20rRKI5kotcakSP-107" value="" style="edgeStyle=elbowEdgeStyle;elbow=horizontal;endArrow=classic;html=1;exitX=1;exitY=0.5;exitDx=0;exitDy=0;" edge="1" parent="1" source="3d83Q20rRKI5kotcakSP-72">
          <mxGeometry width="50" height="50" relative="1" as="geometry">
            <mxPoint x="490" y="1100" as="sourcePoint"/>
            <mxPoint x="480" y="960" as="targetPoint"/>
            <Array as="points">
              <mxPoint x="480" y="900"/>
            </Array>
          </mxGeometry>
        </mxCell>
        <mxCell id="3d83Q20rRKI5kotcakSP-108" value="" style="edgeStyle=elbowEdgeStyle;elbow=horizontal;endArrow=classic;html=1;exitX=1;exitY=0.5;exitDx=0;exitDy=0;" edge="1" parent="1" source="3d83Q20rRKI5kotcakSP-82">
          <mxGeometry width="50" height="50" relative="1" as="geometry">
            <mxPoint x="970" y="570" as="sourcePoint"/>
            <mxPoint x="880" y="960" as="targetPoint"/>
            <Array as="points">
              <mxPoint x="880" y="720"/>
            </Array>
          </mxGeometry>
        </mxCell>
        <mxCell id="3d83Q20rRKI5kotcakSP-109" value="" style="edgeStyle=elbowEdgeStyle;elbow=horizontal;endArrow=classic;html=1;exitX=1;exitY=0.5;exitDx=0;exitDy=0;" edge="1" parent="1" source="3d83Q20rRKI5kotcakSP-83">
          <mxGeometry width="50" height="50" relative="1" as="geometry">
            <mxPoint x="970" y="590" as="sourcePoint"/>
            <mxPoint x="880" y="960" as="targetPoint"/>
            <Array as="points">
              <mxPoint x="880" y="800"/>
            </Array>
          </mxGeometry>
        </mxCell>
        <mxCell id="3d83Q20rRKI5kotcakSP-110" value="" style="edgeStyle=elbowEdgeStyle;elbow=horizontal;endArrow=classic;html=1;exitX=1;exitY=0.5;exitDx=0;exitDy=0;" edge="1" parent="1" source="3d83Q20rRKI5kotcakSP-84">
          <mxGeometry width="50" height="50" relative="1" as="geometry">
            <mxPoint x="1090" y="600" as="sourcePoint"/>
            <mxPoint x="880" y="960" as="targetPoint"/>
            <Array as="points">
              <mxPoint x="880" y="900"/>
            </Array>
          </mxGeometry>
        </mxCell>
        <mxCell id="3d83Q20rRKI5kotcakSP-113" value="" style="edgeStyle=orthogonalEdgeStyle;rounded=0;orthogonalLoop=1;jettySize=auto;html=1;entryX=0.5;entryY=0;entryDx=0;entryDy=0;" edge="1" parent="1" source="3d83Q20rRKI5kotcakSP-111" target="3d83Q20rRKI5kotcakSP-114">
          <mxGeometry relative="1" as="geometry">
            <mxPoint x="1040" y="1040" as="targetPoint"/>
          </mxGeometry>
        </mxCell>
        <mxCell id="3d83Q20rRKI5kotcakSP-111" value="15 x 650000" style="rounded=0;whiteSpace=wrap;html=1;" vertex="1" parent="1">
          <mxGeometry x="940" y="930" width="200" height="60" as="geometry"/>
        </mxCell>
        <mxCell id="3d83Q20rRKI5kotcakSP-114" value="Total Lembur" style="shape=parallelogram;perimeter=parallelogramPerimeter;whiteSpace=wrap;html=1;" vertex="1" parent="1">
          <mxGeometry x="945" y="1040" width="190" height="60" as="geometry"/>
        </mxCell>
      </root>
    </mxGraphModel>
  </diagram>
</mxfile>
